PathFileType	4	(X/Y/Z)	C:/Users/beibeiliu/ov580/test_trc/User1\sequence.33_training_dense_left.trc
DataRate	CameraRate	NumFrames	NumMarkers	Units	OrigDataRate	OrigDataStartFrame	OrigNumFrames
120	120	16	19	mm	120	131	260
Frame#	Time	ThumbCMC			ThumbMCP			ThumbIP			ThumbTip			IndexMCP			IndexPIP			IndexTip			MiddleMCP			MiddlePIP			MiddleTip			RingMCP			RingPIP			RingTip			PinkyMCP			PinkyPIP			PinkyTip			BackHand1			BackHand2			BackHand3	
		X0	Y0	Z0	X1	Y1	Z1	X2	Y2	Z2	X3	Y3	Z3	X4	Y4	Z4	X5	Y5	Z5	X6	Y6	Z6	X7	Y7	Z7	X8	Y8	Z8	X9	Y9	Z9	X10	Y10	Z10	X11	Y11	Z11	X12	Y12	Z12	X13	Y13	Z13	X14	Y14	Z14	X15	Y15	Z15	X16	Y16	Z16	X17	Y17	Z17	X18	Y18	Z18	
130	1.08333	-115.212	-9.82228	60.5207	-94.5974	-12.1169	28.9272	-82.6002	-4.64232	4.629	-71.0156	-2.68086	-15.0504	-97.954	52.1996	14.629	-87.8412	51.2873	-18.2282	-83.0418	29.4139	-41.9221	-120.963	59.2523	-3.08857	-107.554	51.2912	-33.0294	-101.111	19.8628	-49.5054	-151.005	57.3609	-6.4654	-130.958	58.2229	-38.6784	-120.105	35.0383	-58.1854	-180.159	41.3793	-2.8346	-183.18	53.9048	-20.1075	-183.1	69.0659	-43.4963	-170.666	32.8786	41.5898	-182.034	7.88001	65.0541	-145.048	18.4938	70.7351	
131	1.09167	-117.226	-10.6835	62.7215	-96.9173	-11.4997	30.9636	-82.6278	-4.55392	9.14667	-72.5498	-0.158956	-13.0995	-98.4638	55.1939	14.5997	-88.2378	55.3964	-12.0153	-85.1734	35.4461	-37.7425	-120.898	62.9044	-1.00387	-106.121	54.7281	-30.1503	-100.809	22.1782	-49.3628	-148.929	59.4974	-5.09773	-134.775	62.1814	-36.3976	-123.713	41.7858	-55.3397	-177.658	42.2138	0.810409	-184.854	54.2254	-18.4771	-186.482	72.5224	-41.3481	-172.366	29.8759	44.1265	-180.874	9.32003	69.0906	-146.588	18.5484	72.1026	
132	1.1	-115.567	-7.76546	64.378	-93.0645	-9.95696	32.4231	-80.8399	0.50174	10.3835	-71.3605	2.27457	-9.34698	-100.823	57.2423	17.6598	-89.7341	57.8602	-12.1772	-82.1801	39.2684	-34.7269	-120.507	65.0463	1.29594	-107.235	57.6586	-28.5431	-98.9145	25.1361	-47.6473	-144.966	63.021	-1.38081	-133.539	64.5441	-33.6315	-119.032	46.6119	-51.5352	-177.423	43.3565	2.27144	-183.468	57.0835	-17.9049	-185.058	72.8301	-39.1883	-168.127	31.4415	44.7635	-181.512	6.45065	72.008	-142.945	23.9732	72.6964	
133	1.10833	-112.189	-5.89247	67.0051	-93.3709	-9.26171	37.6385	-81.9879	2.01859	13.6589	-68.2724	8.1348	-9.60423	-99.2859	59.826	23.2335	-88.6606	60.367	-7.40938	-79.2661	40.8308	-32.0983	-121.652	66.9022	5.55422	-102.563	61.4656	-22.4446	-97.8351	31.7801	-43.8172	-151.428	63.0729	1.46607	-132.307	68.2009	-27.1281	-116.557	47.2149	-48.8269	-180.407	42.2204	2.73008	-185.713	55.761	-15.2928	-182.511	72.8682	-34.3815	-170.902	30.7936	50.2666	-182.68	8.50784	71.7196	-147.109	22.8578	75.4147	
134	1.11667	-114.953	-5.587	70.1805	-94.4258	-1.96883	37.4727	-81.1475	7.45211	15.9926	-68.7943	10.8192	-4.38249	-100.72	63.3693	25.1952	-82.1326	63.0237	-4.55329	-79.6925	44.4102	-27.4724	-119.078	69.5139	9.03278	-104.207	65.8018	-19.7072	-90.2857	32.7269	-38.2618	-149.381	65.3848	2.16504	-129.675	69.9031	-26.5531	-115.673	47.1485	-47.8025	-180.466	46.153	1.48411	-180.628	60.429	-16.3425	-178.723	76.0791	-35.9026	-169.217	34.1416	46.0261	-180.402	13.8814	71.0835	-145.517	27.2906	77.0661	
135	1.125	-114.909	-3.63589	75.0581	-92.0206	-2.03975	44.1675	-78.0719	10.9763	19.8176	-62.7531	13.8774	0.986937	-98.8759	67.1541	23.9381	-85.9387	65.4461	-4.50162	-77.2538	45.2102	-26.2323	-119.166	70.9032	10.364	-100.441	67.017	-15.9905	-90.3894	32.2253	-37.9331	-142.438	67.6701	2.87975	-127.788	69.1711	-28.757	-110.02	48.3261	-43.5937	-174.589	43.7048	4.17162	-179.57	59.3828	-18.177	-178.48	74.8456	-37.1146	-168.57	34.6546	49.2915	-183.866	13.6092	66.8813	-146.52	27.9492	77.937	
136	1.13333	-116.373	4.1883	73.4686	-90.1545	5.24944	46.016	-75.1113	12.5715	27.4061	-60.0813	19.6756	6.11576	-98.755	70.4704	25.8994	-86.117	69.1569	-1.51525	-75.7712	48.9876	-21.8061	-118.273	73.5326	10.609	-97.1933	67.7005	-15.9975	-82.4583	35.9538	-32.0832	-144.765	66.6325	2.38363	-126.917	70.4117	-24.0029	-107.716	46.7126	-42.7182	-174.698	47.0924	-1.20812	-178.41	56.0501	-20.062	-173.318	74.3664	-43.1258	-168.385	34.0181	50.1259	-184.396	14.1364	67.8546	-149.493	30.9202	76.9652	
137	1.14167	-117.593	9.16904	76.4476	-90.206	8.02578	51.7766	-76.1047	20.6295	28.4056	-60.5431	25.6032	9.8306	-102.563	73.2208	29.9885	-81.6215	72.1957	2.48502	-68.7652	51.1342	-16.7255	-121.165	73.4045	12.531	-96.3155	69.1582	-15.9977	-83.4118	38.4871	-32.2817	-147.056	66.048	0.16305	-127.162	67.927	-27.6878	-102.938	45.5781	-39.8902	-172.365	45.2443	-2.56048	-174.493	54.8308	-24.5088	-171.505	69.7159	-42.1072	-170.86	36.2933	48.092	-184.026	12.7947	66.8932	-149.911	34.815	78.57	
138	1.15	-118.386	11.7017	78.334	-91.5189	13.4908	52.6533	-71.6107	26.97	29.825	-57.101	29.4373	13.612	-103.618	77.4317	25.6145	-84.7085	73.6969	-1.99235	-67.4081	50.4937	-16.9592	-123.182	76.1436	4.04864	-97.5807	68.5813	-18.854	-80.9225	39.847	-30.542	-146.688	65.5682	-2.66241	-123.453	66.5973	-29.4064	-105.494	43.6199	-41.355	-170.318	45.0143	-6.58607	-173.774	51.7846	-29.1995	-169.985	65.3725	-46.7464	-173.802	39.4123	40.9313	-184.542	12.1418	66.1853	-151.539	38.7933	74.9205	
139	1.15833	-116.177	20.6463	77.1136	-89.1832	21.9113	51.9062	-74.2661	31.7868	29.8984	-60.4045	34.4458	14.625	-104.429	80.0642	21.1773	-83.4754	74.4796	-4.16174	-71.6742	52.0796	-18.2931	-126.754	75.1395	-4.88782	-103.009	69.1423	-23.0059	-80.4126	40.1173	-29.7245	-146.492	63.2092	-11.5477	-122.407	60.7724	-37.1505	-99.566	39.6621	-40.4169	-171.352	37.1628	-8.10177	-172.865	45.5394	-31.5202	-167.43	58.379	-56.5781	-174.016	34.4398	39.7226	-185.704	16.437	59.0999	-157.191	38.0932	70.339	
140	1.16667	-120.689	27.2248	74.2579	-90.9625	26.7831	53.0566	-74.0591	36.4782	30.7498	-56.9177	40.9139	12.0451	-111.651	78.9768	10.9457	-88.3291	71.9462	-12.3004	-73.025	48.1814	-21.5477	-130.609	71.2694	-7.57558	-105.026	63.6277	-30.2496	-79.0809	34.3323	-29.6374	-148.033	58.78	-17.3092	-120.162	55.316	-41.5026	-97.4192	34.9758	-40.839	-170.866	32.1004	-15.7984	-170.737	39.154	-37.6103	-164.204	52.4979	-57.4308	-175.368	32.3441	33.0497	-185.829	10.8944	59.1633	-159.171	44.6589	66.0151	
141	1.175	-123.259	33.5098	72.7122	-95.3716	33.4553	49.4535	-74.4181	42.764	32.1975	-60.7913	44.2174	15.4209	-116.67	79.0813	6.3292	-94.2811	72.6913	-14.9282	-69.9379	47.6476	-19.8433	-136.015	66.1404	-17.0948	-101.361	60.2951	-34.6238	-77.9845	35.4462	-30.6289	-149.59	49.6575	-28.8863	-123.675	46.3043	-47.1954	-99.3069	29.1009	-45.2778	-171.432	24.077	-24.0614	-169.811	29.1126	-41.8228	-162.383	43.2436	-68.3712	-176.498	29.9965	23.49	-188.022	11.1495	50.4167	-164.493	41.2337	57.2687	
142	1.18333	-126.571	38.5471	71.5337	-97.4119	39.4043	48.2746	-77.2304	47.5711	29.3628	-61.1749	49.7629	12.9761	-122.542	77.3042	-2.57973	-96.7231	68.1784	-22.4615	-74.5255	47.2164	-22.4066	-134.171	61.6378	-23.971	-105.441	54.1676	-40.4711	-76.5835	29.4304	-31.0011	-149.122	41.8567	-30.6415	-121.956	37.8837	-51.2846	-90.0736	26.6257	-42.6694	-167.826	11.9341	-27.9017	-164.026	18.8322	-46.4058	-160.431	25.0016	-71.9786	-177.16	23.2074	20.6846	-188.727	5.48261	45.7381	-169.88	39.1287	51.458	
143	1.19167	-132.065	44.0903	65.2154	-101.463	43.2989	44.393	-80.5884	51.7858	28.1907	-62.5035	54.2966	11.7908	-125.33	72.853	-9.93681	-98.8521	66.9521	-26.4208	-72.8474	48.1266	-22.5415	-135.217	51.6784	-32.9384	-102.776	46.9614	-43.7632	-72.176	32.0498	-30.1445	-148.372	30.4077	-35.5183	-116.427	28.6053	-55.0939	-91.1245	22.1639	-48.1739	-161.975	-0.378233	-25.0922	-158.364	4.63385	-48.8731	-152.477	8.4442	-77.1272	-177.348	18.8394	15.7531	-186.892	-0.562044	43.9535	-171.67	35.7258	44.888	
144	1.2	-136.151	45.2768	61.2941	-102.75	49.9033	42.7061	-82.7216	56.2869	25.3478	-61.2185	60.5267	10.602	-128.769	68.6074	-16.2488	-98.1079	65.6474	-28.0995	-69.4487	49.3792	-22.6575	-136.635	44.5968	-35.3903	-104.842	43.4391	-46.183	-70.2536	33.1779	-30.1186	-142.478	23.6074	-41.1655	-117.786	23.103	-55.6875	-83.8584	16.2749	-48.368	-155.363	-5.92589	-25.8157	-150.889	-9.32455	-51.1776	-148.174	-7.20491	-72.8301	-175.714	11.5058	13.608	-186.095	-3.88659	43.2986	-173.314	35.9087	38.5473	
145	1.20833	-140.025	50.1987	54.3002	-107.623	52.3212	39.4444	-86.3035	59.9393	20.7931	-66.2157	63.2468	8.15282	-128.603	63.7175	-23.6708	-102.515	61.671	-33.6202	-74.8561	51.1501	-27.5171	-136.504	36.2196	-37.9836	-104.251	37.1575	-48.1613	-67.9293	33.1438	-31.3477	-143.312	15.3865	-38.6473	-113.405	15.1962	-57.1275	-81.7979	15.4266	-48.8926	-151.611	-18.6128	-29.7866	-145.381	-22.117	-47.7508	-140.642	-22.4177	-72.4547	-173.599	1.5609	11.8148	-185.472	-9.63109	41.7226	-176.272	31.4874	36.833	
